<?xml version="1.0" standalone="no"?>
<!DOCTYPE svg PUBLIC "-//W3C//DTD SVG 20010904//EN"
 "http://www.w3.org/TR/2001/REC-SVG-20010904/DTD/svg10.dtd">
<svg version="1.0" xmlns="http://www.w3.org/2000/svg"
 width="1024.000000pt" height="1024.000000pt" viewBox="0 0 1024.000000 1024.000000"
 preserveAspectRatio="xMidYMid meet">
<metadata>
Created by potrace 1.14, written by Peter Selinger 2001-2017
</metadata>
<g transform="translate(0.000000,1024.000000) scale(0.100000,-0.100000)"
fill="#000000" stroke="none">
<path d="M689 10229 c-147 -21 -307 -100 -421 -207 -133 -125 -214 -268 -249
-436 -18 -88 -19 -231 -19 -4466 0 -4235 1 -4378 19 -4466 50 -242 217 -459
435 -564 56 -26 133 -56 171 -66 68 -18 221 -19 4495 -19 4274 0 4427 1 4495
19 39 10 115 40 171 66 218 105 385 322 435 564 18 88 19 231 19 4466 0 4235
-1 4378 -19 4466 -35 168 -116 311 -251 438 -65 61 -104 87 -184 126 -55 27
-128 57 -161 67 -57 17 -262 18 -4470 19 -2426 1 -4435 -2 -4466 -7z m4856
-3381 c-10 -83 -86 -1290 -82 -1294 2 -3 280 103 618 235 338 132 620 241 628
243 10 2 49 -105 144 -400 71 -222 128 -404 126 -406 -2 -2 -289 -74 -636
-161 l-633 -157 18 -22 c9 -12 201 -244 426 -515 224 -270 407 -493 405 -495
-2 -2 -161 -115 -352 -251 -203 -145 -352 -244 -355 -238 -4 6 -164 261 -356
567 -192 306 -352 556 -355 556 -3 0 -170 -261 -371 -580 -201 -319 -368 -579
-372 -577 -4 1 -157 112 -339 247 -183 135 -336 248 -342 252 -6 4 175 229
422 524 367 439 430 519 415 526 -11 4 -305 80 -654 169 -349 89 -636 163
-638 164 -5 4 258 808 266 816 4 4 286 -107 627 -246 341 -138 621 -251 623
-249 3 2 -73 1196 -82 1287 l-5 47 429 0 430 0 -5 -42z"/>
</g>
</svg>
